STARTFONT 2.1
COMMENT "$XConsortium: us12x23B.bdf /main/2 1996/10/29 18:29:02 drk $"
COMMENT "Hand-pixeled glyphs created with modified X Font Editor (Xfed)"
FONT -HP-HP User-Bold-R-Normal-Serif-18-180-72-72-M-120-ISO8859-1
SIZE 18 72 72 
FONTBOUNDINGBOX 12 23 0 -5
STARTPROPERTIES 25
COMMENT "Begin X Logical Font Description (XLFD) Version 1.5"
COPYRIGHT "(c) Copyright 1994, Hewlett Packard Company"
NOTICE "Created by the User Interaction Design Group, July 1994."
NOTICE "Hewlett Packard Company, 3000 Hanover St., Palo Alto, CA 94303, USA"
FONTNAME_REGISTRY ""
FOUNDRY "HP"
FAMILY_NAME "HP User"
WEIGHT_NAME "Bold"
SLANT "R"
ADD_STYLE_NAME "Serif"
SETWIDTH_NAME "Normal"
PIXEL_SIZE 18
POINT_SIZE 180
RESOLUTION_X 72
RESOLUTION_Y 72
SPACING "M"
AVERAGE_WIDTH 120
CHARSET_REGISTRY "ISO8859"
CHARSET_ENCODING "1"
COMMENT "End X Logical Font Description (XLFD)"
CHARSET_COLLECTIONS "ISO8859-1"
FULL_NAME "HP User12x23B"
CAP_HEIGHT 14
X_HEIGHT 9
FONT_ASCENT 18
FONT_DESCENT 5
DEFAULT_CHAR 32
COMMENT "End of Font Properties"
ENDPROPERTIES
CHARS 223
STARTCHAR Null
ENCODING 0
SWIDTH 666 0
DWIDTH 12 0
BBX 10 23 1 -5
BITMAP
0000
0000
8800
c800
e800
f800
b800
9800
0000
1900
1900
1900
1900
1900
0e00
0000
0600
0600
0600
0600
0600
07C0
0000
ENDCHAR
STARTCHAR StartOfHeading
ENCODING 1
SWIDTH 666 0
DWIDTH 12 0
BBX 10 23 1 -5
BITMAP
0000
7000
c800
e000
7000
3800
9800
7000
0000
1C00
3200
3200
3200
3200
1C00
0000
0640
0640
07C0
0640
0640
0640
0000
ENDCHAR
STARTCHAR StartOfText
ENCODING 2
SWIDTH 666 0
DWIDTH 12 0
BBX 10 23 1 -5
BITMAP
0000
7000
c800
e000
7000
3800
9800
7000
0000
7E00
1800
1800
1800
1800
1800
0440
0640
0380
0380
0380
04c0
0440
0000
ENDCHAR
STARTCHAR EndOfText
ENCODING 3
SWIDTH 666 0
DWIDTH 12 0
BBX 10 23 1 -5
BITMAP
0000
0000
F800
c000
f000
c000
c000
F800
0000
3F00
0c00
0c00
0c00
0c00
0c00
0000
0c40
0680
0300
0380
04c0
0440
0000
ENDCHAR
STARTCHAR EndOfTransmit
ENCODING 4
SWIDTH 666 0
DWIDTH 12 0
BBX 11 23 1 -5
BITMAP
0000
0000
F800
c000
f000
c000
c000
F800
0000
1C00
3200
3200
3200
3200
1C00
0000
07E0
0180
0180
0180
0180
0180
0000
ENDCHAR
STARTCHAR Enquiry
ENCODING 5
SWIDTH 666 0
DWIDTH 12 0
BBX 10 23 1 -5
BITMAP
0000
0000
F800
c000
f000
c000
c000
F800
0000
2200
3200
3A00
2e00
2600
2200
0000
0380
0640
0640
0640
0740
0380
00C0
ENDCHAR
STARTCHAR Acknowledge
ENCODING 6
SWIDTH 666 0
DWIDTH 12 0
BBX 10 23 1 -5
BITMAP
0000
0000
7000
c800
c800
f800
c800
c800
0000
1C00
3200
3000
3000
3200
1C00
0000
0640
0680
0700
0780
06c0
0640
0000
ENDCHAR
STARTCHAR Bell
ENCODING 7
SWIDTH 666 0
DWIDTH 12 0
BBX 11 23 1 -5
BITMAP
0000
0180
0300
0E00
1b00
3180
2180
2180
2180
60c0
40c0
40c0
40c0
40c0
40c0
c060
8060
FFE0
0700
0380
0100
0000
0000
ENDCHAR
STARTCHAR BackSpace
ENCODING 8
SWIDTH 666 0
DWIDTH 12 0
BBX 10 23 1 -5
BITMAP
0000
0000
f800
6400
6400
7800
6400
6400
6400
f800
0000
0380
0640
0700
0380
01c0
00c0
04c0
0380
0000
0000
0000
0000
ENDCHAR
STARTCHAR HorizontalTab
ENCODING 9
SWIDTH 666 0
DWIDTH 12 0
BBX 10 23 1 -5
BITMAP
0000
0000
cc00
cc00
cc00
Fc00
cc00
cc00
cc00
cc00
0000
0fC0
0300
0300
0300
0300
0300
0300
0300
0000
0000
0000
0000
ENDCHAR
STARTCHAR LineFeed
ENCODING 10
SWIDTH 666 0
DWIDTH 12 0
BBX 10 23 1 -5
BITMAP
0000
0000
c000
c000
c000
c000
c000
c000
c000
Fc00
0000
0fC0
0c00
0c00
0f80
0c00
0c00
0c00
0c00
0000
0000
0000
0000
ENDCHAR
STARTCHAR VerticalTab
ENCODING 11
SWIDTH 666 0
DWIDTH 12 0
BBX 10 23 1 -5
BITMAP
0000
0000
c400
c400
c400
6c00
6800
6800
3800
3000
3000
0fC0
0300
0300
0300
0300
0300
0300
0300
0000
0000
0000
0000
ENDCHAR
STARTCHAR FormFeed
ENCODING 12
SWIDTH 666 0
DWIDTH 12 0
BBX 10 23 1 -5
BITMAP
0000
0000
Fc00
c000
c000
F800
c000
c000
c000
c000
0000
0fC0
0c00
0c00
0f80
0c00
0c00
0c00
0c00
0000
0000
0000
0000
ENDCHAR
STARTCHAR CarriageReturn
ENCODING 13
SWIDTH 666 0
DWIDTH 12 0
BBX 10 23 1 -5
BITMAP
0000
0000
7000
c800
c000
c000
c000
c000
c800
7000
0000
0f80
0c40
0c40
0cc0
0f80
0d80
0cc0
0c40
0000
0000
0000
0000
ENDCHAR
STARTCHAR ShiftOut
ENCODING 14
SWIDTH 666 0
DWIDTH 12 0
BBX 10 23 1 -5
BITMAP
0000
7000
c800
c000
e000
7000
3800
1800
9800
7000
0000
0380
0640
0640
0640
0640
0640
0640
0380
0000
0000
0000
0000
ENDCHAR
STARTCHAR ShiftIn
ENCODING 15
SWIDTH 666 0
DWIDTH 12 0
BBX 9 23 1 -5
BITMAP
0000
7000
c800
c000
e000
7000
3800
1800
9800
7000
0000
0780
0300
0300
0300
0300
0300
0300
0780
0000
0000
0000
0000
ENDCHAR
STARTCHAR DataLinkEscape
ENCODING 16
SWIDTH 666 0
DWIDTH 12 0
BBX 10 23 1 -5
BITMAP
0000
0000
f800
6400
6400
6400
6400
f800
0000
3000
3000
3000
3000
3000
3E00
0000
07C0
0600
0780
0600
0600
07C0
0000
ENDCHAR
STARTCHAR DevCtrl1orXon
ENCODING 17
SWIDTH 666 0
DWIDTH 12 0
BBX 10 23 1 -5
BITMAP
0000
0000
f800
6400
6400
6400
6400
f800
0000
1C00
3200
3000
3000
3200
1C00
0000
0180
0380
0180
0180
0180
03C0
0000
ENDCHAR
STARTCHAR DeviceControl2
ENCODING 18
SWIDTH 666 0
DWIDTH 12 0
BBX 10 23 1 -5
BITMAP
0000
0000
f800
6400
6400
6400
6400
f800
0000
1C00
3200
3000
3000
3200
1C00
0000
0380
04c0
00c0
0180
0300
07C0
0000
ENDCHAR
STARTCHAR DevCtrl3orXoff
ENCODING 19
SWIDTH 666 0
DWIDTH 12 0
BBX 10 23 1 -5
BITMAP
0000
0000
f800
6400
6400
6400
6400
f800
0000
1C00
3200
3000
3000
3200
1C00
0000
0380
04c0
0180
00c0
04c0
0380
0000
ENDCHAR
STARTCHAR DeviceControl4
ENCODING 20
SWIDTH 666 0
DWIDTH 12 0
BBX 10 23 1 -5
BITMAP
0000
0000
f800
6400
6400
6400
6400
f800
0000
1C00
3200
3000
3000
3200
1C00
0180
0380
0580
0980
0fc0
0180
0180
0000
ENDCHAR
STARTCHAR NegAcknowledge
ENCODING 21
SWIDTH 666 0
DWIDTH 12 0
BBX 10 23 1 -5
BITMAP
0000
0000
8800
c800
e800
B800
9800
8800
0000
1C00
3200
3200
3E00
3200
3200
0000
0640
0680
0780
0780
06c0
0640
0000
ENDCHAR
STARTCHAR SynchronusIdle
ENCODING 22
SWIDTH 666 0
DWIDTH 12 0
BBX 10 23 1 -5
BITMAP
0000
7000
c800
e000
7000
3800
9800
7000
0000
3100
3100
1a00
0c00
0c00
0c00
0000
0440
0640
0740
05C0
04C0
0440
0000
ENDCHAR
STARTCHAR EndTransmit
ENCODING 23
SWIDTH 666 0
DWIDTH 12 0
BBX 10 23 1 -5
BITMAP
0000
0000
F800
c000
f000
c000
c000
F800
0000
7e00
1800
1800
1800
1800
1800
0000
0f80
0640
0780
0640
0640
0f80
0000
ENDCHAR
STARTCHAR Cancel
ENCODING 24
SWIDTH 666 0
DWIDTH 12 0
BBX 10 23 1 -5
BITMAP
0000
0000
7000
c800
c000
c000
c800
7000
0000
1C00
3200
3200
3E00
3200
3200
0000
0440
0640
0740
05C0
04C0
0440
0000
ENDCHAR
STARTCHAR EndOfMedium
ENCODING 25
SWIDTH 666 0
DWIDTH 12 0
BBX 10 23 1 -5
BITMAP
0000
0000
F800
c000
c000
F000
c000
c000
c000
F800
0000
0c40
0eC0
0eC0
0fc0
0d40
0d40
0c40
0c40
0000
0000
0000
0000
ENDCHAR
STARTCHAR Substitute
ENCODING 26
SWIDTH 666 0
DWIDTH 12 0
BBX 10 23 1 -5
BITMAP
0000
7000
c800
e000
7000
3800
9800
7000
0000
3200
3200
3200
3200
3200
1C00
0000
0f80
0640
0780
0640
0640
0f80
0000
ENDCHAR
STARTCHAR Escape
ENCODING 27
SWIDTH 666 0
DWIDTH 12 0
BBX 10 23 1 -5
BITMAP
0000
f800
c000
f000
c000
c000
f800
0000
1c00
3200
3800
1C00
0e00
2600
1C00
0000
0380
0640
0600
0600
0640
0380
0000
ENDCHAR
STARTCHAR FileSeparator
ENCODING 28
SWIDTH 666 0
DWIDTH 12 0
BBX 10 23 1 -5
BITMAP
0000
0000
Fc00
c000
c000
F800
c000
c000
c000
c000
0000
0380
0640
0700
0380
01c0
00c0
04c0
0380
0000
0000
0000
0000
ENDCHAR
STARTCHAR GroupSeparator
ENCODING 29
SWIDTH 666 0
DWIDTH 12 0
BBX 10 23 1 -5
BITMAP
0000
0000
7800
c400
c000
c000
dc00
cc00
cc00
7800
0000
0380
0640
0700
0380
01c0
00c0
04c0
0380
0000
0000
0000
0000
ENDCHAR
STARTCHAR RecordSeparatr
ENCODING 30
SWIDTH 666 0
DWIDTH 12 0
BBX 10 23 1 -5
BITMAP
0000
0000
F800
cc00
c400
cc00
F800
d800
cc00
cc00
0000
0380
0640
0700
0380
01c0
00c0
04c0
0380
0000
0000
0000
0000
ENDCHAR
STARTCHAR UnitSeparator
ENCODING 31
SWIDTH 666 0
DWIDTH 12 0
BBX 10 23 1 -5
BITMAP
0000
0000
c400
c400
c400
c400
c400
c400
c400
7800
0000
0380
0640
0700
0380
01c0
00c0
04c0
0380
0000
0000
0000
0000
ENDCHAR
STARTCHAR PrintableSpace
ENCODING 32
SWIDTH 666 0
DWIDTH 12 0
BBX 12 23 0 -5
BITMAP
0000
0000
0000
0000
0000
0000
0000
0000
0000
0000
0000
0000
0000
0000
0000
0000
0000
0000
0000
0000
0000
0000
0000
ENDCHAR
STARTCHAR Exclamation
ENCODING 33
SWIDTH 666 0
DWIDTH 12 0
BBX 4 23 4 -5
BITMAP
0000
0000
0000
6000
F000
F000
F000
F000
F000
f000
6000
6000
6000
0000
0000
6000
F000
F000
6000
0000
0000
0000
0000
ENDCHAR
STARTCHAR NeutrlDblQuote
ENCODING 34
SWIDTH 666 0
DWIDTH 12 0
BBX 8 23 2 -5
BITMAP
0000
0000
0000
E700
E700
E700
e700
c600
c600
c600
0000
0000
0000
0000
0000
0000
0000
0000
0000
0000
0000
0000
0000
ENDCHAR
STARTCHAR NumberSign
ENCODING 35
SWIDTH 666 0
DWIDTH 12 0
BBX 10 23 1 -5
BITMAP
0000
0000
0000
3300
3300
3300
3300
FFC0
FFC0
3300
3300
3300
3300
FFC0
FFC0
3300
3300
3300
3300
0000
0000
0000
0000
ENDCHAR
STARTCHAR DollarSign
ENCODING 36
SWIDTH 666 0
DWIDTH 12 0
BBX 10 23 1 -5
BITMAP
0000
0000
0C00
0C00
3F80
71c0
e0c0
e0c0
f000
7800
3e00
1F00
0780
03C0
c1C0
C1C0
E180
7F00
0C00
0C00
0000
0000
0000
ENDCHAR
STARTCHAR PerCentSign
ENCODING 37
SWIDTH 666 0
DWIDTH 12 0
BBX 11 23 1 -5
BITMAP
0000
0000
0000
78C0
CCC0
CDc0
CD80
7B80
0300
0700
0600
0e00
0C00
1c00
1BC0
3e60
3660
7660
63C0
6000
0000
0000
0000
ENDCHAR
STARTCHAR Ampersand
ENCODING 38
SWIDTH 666 0
DWIDTH 12 0
BBX 11 23 1 -5
BITMAP
0000
0000
0000
1c00
3600
7300
7300
7300
3e00
3c00
1c00
3c00
7ee0
e6c0
e780
e380
e3c0
76e0
3c60
0000
0000
0000
0000
ENDCHAR
STARTCHAR SingleCloseQut
ENCODING 39
SWIDTH 666 0
DWIDTH 12 0
BBX 5 23 3 -5
BITMAP
0000
0000
3000
7800
7800
7800
3000
6000
c000
0000
0000
0000
0000
0000
0000
0000
0000
0000
0000
0000
0000
0000
0000
ENDCHAR
STARTCHAR OpenParen
ENCODING 40
SWIDTH 666 0
DWIDTH 12 0
BBX 6 23 4 -5
BITMAP
0000
0000
0c00
1800
3800
7000
7000
e000
e000
e000
e000
e000
e000
e000
e000
7000
7000
3800
1800
0c00
0000
0000
0000
ENDCHAR
STARTCHAR CloseParen
ENCODING 41
SWIDTH 666 0
DWIDTH 12 0
BBX 6 23 3 -5
BITMAP
0000
0000
c000
6000
7000
3800
3800
1C00
1C00
1C00
1C00
1C00
1C00
1C00
1C00
3800
3800
7000
6000
c000
0000
0000
0000
ENDCHAR
STARTCHAR Asterisk
ENCODING 42
SWIDTH 666 0
DWIDTH 12 0
BBX 10 23 1 -5
BITMAP
0000
0000
0000
0000
0000
0000
0c00
4c80
edc0
7f80
3f00
1e00
7f80
edc0
4c80
0c00
0000
0000
0000
0000
0000
0000
0000
ENDCHAR
STARTCHAR PlusSign
ENCODING 43
SWIDTH 666 0
DWIDTH 12 0
BBX 10 23 1 -5
BITMAP
0000
0000
0000
0000
0000
0000
0C00
0C00
0C00
0C00
FFC0
FFC0
0C00
0C00
0C00
0C00
0000
0000
0000
0000
0000
0000
0000
ENDCHAR
STARTCHAR Comma
ENCODING 44
SWIDTH 666 0
DWIDTH 12 0
BBX 5 23 3 -5
BITMAP
0000
0000
0000
0000
0000
0000
0000
0000
0000
0000
0000
0000
0000
0000
3000
7800
7800
7800
3000
6000
c000
0000
0000
ENDCHAR
STARTCHAR Hyphen
ENCODING 45
SWIDTH 666 0
DWIDTH 12 0
BBX 10 23 1 -5
BITMAP
0000
0000
0000
0000
0000
0000
0000
0000
0000
0000
FFC0
FFC0
0000
0000
0000
0000
0000
0000
0000
0000
0000
0000
0000
ENDCHAR
STARTCHAR Period
ENCODING 46
SWIDTH 666 0
DWIDTH 12 0
BBX 4 23 4 -5
BITMAP
0000
0000
0000
0000
0000
0000
0000
0000
0000
0000
0000
0000
0000
0000
6000
F000
F000
f000
6000
0000
0000
0000
0000
ENDCHAR
STARTCHAR Slash
ENCODING 47
SWIDTH 666 0
DWIDTH 12 0
BBX 10 23 1 -5
BITMAP
0000
0000
00c0
00c0
01c0
0180
0380
0300
0700
0600
0e00
0c00
1c00
1800
3800
3000
7000
6000
e000
c000
0000
0000
0000
ENDCHAR
STARTCHAR Zero
ENCODING 48
SWIDTH 666 0
DWIDTH 12 0
BBX 11 23 1 -5
BITMAP
0000
0000
0000
0000
1f00
3b80
71c0
71c0
e0e0
e4e0
eee0
e4e0
e0e0
e0e0
71c0
71c0
3b80
1f00
0000
0000
0000
0000
0000
ENDCHAR
STARTCHAR One
ENCODING 49
SWIDTH 666 0
DWIDTH 12 0
BBX 5 23 3 -5
BITMAP
0000
0000
0000
0000
1800
3800
7800
f800
d800
1800
1800
1800
1800
1800
1800
1800
1800
1800
0000
0000
0000
0000
0000
ENDCHAR
STARTCHAR Two
ENCODING 50
SWIDTH 666 0
DWIDTH 12 0
BBX 9 23 2 -5
BITMAP
0000
0000
0000
0000
3E00
6700
C380
C380
0380
0300
0600
0c00
1800
3000
6080
c180
ff80
FF80
0000
0000
0000
0000
0000
ENDCHAR
STARTCHAR Three
ENCODING 51
SWIDTH 666 0
DWIDTH 12 0
BBX 9 23 2 -5
BITMAP
0000
0000
0000
0000
3E00
6700
C380
C380
0380
0700
1E00
0700
0380
0380
0380
c380
e700
7E00
0000
0000
0000
0000
0000
ENDCHAR
STARTCHAR Four
ENCODING 52
SWIDTH 666 0
DWIDTH 12 0
BBX 10 23 2 -5
BITMAP
0000
0000
0000
0000
0C00
0C00
1800
1800
3100
3300
6300
6300
C300
ffc0
FFC0
0300
0300
0300
0000
0000
0000
0000
0000
ENDCHAR
STARTCHAR Five
ENCODING 53
SWIDTH 666 0
DWIDTH 12 0
BBX 9 23 2 -5
BITMAP
0000
0000
0000
0000
7F00
6000
6000
6000
6000
7E00
0700
0380
0380
0380
0380
c380
e700
7E00
0000
0000
0000
0000
0000
ENDCHAR
STARTCHAR Six
ENCODING 54
SWIDTH 666 0
DWIDTH 12 0
BBX 9 23 2 -5
BITMAP
0000
0000
0000
0000
0700
1c00
3000
7000
6000
e000
fe00
f300
e180
e180
e180
e180
7300
3e00
0000
0000
0000
0000
0000
ENDCHAR
STARTCHAR Seven
ENCODING 55
SWIDTH 666 0
DWIDTH 12 0
BBX 9 23 2 -5
BITMAP
0000
0000
0000
0000
FF80
ff80
8380
0300
0700
0600
0600
0e00
0c00
0c00
1c00
1800
1800
1800
0000
0000
0000
0000
0000
ENDCHAR
STARTCHAR Eight
ENCODING 56
SWIDTH 666 0
DWIDTH 12 0
BBX 9 23 2 -5
BITMAP
0000
0000
0000
0000
3c00
7600
e300
e300
f300
7e00
3e00
6f00
c700
c380
c380
c380
6700
3e00
0000
0000
0000
0000
0000
ENDCHAR
STARTCHAR Nine
ENCODING 57
SWIDTH 666 0
DWIDTH 12 0
BBX 9 23 2 -5
BITMAP
0000
0000
0000
0000
3E00
6700
C380
C380
C380
C380
6780
3f80
0380
0300
0700
0600
1C00
7000
0000
0000
0000
0000
0000
ENDCHAR
STARTCHAR Colon
ENCODING 58
SWIDTH 666 0
DWIDTH 12 0
BBX 4 23 4 -5
BITMAP
0000
0000
0000
0000
0000
0000
0000
0000
6000
f000
F000
f000
6000
0000
6000
F000
F000
f000
6000
0000
0000
0000
0000
ENDCHAR
STARTCHAR Simicolon
ENCODING 59
SWIDTH 666 0
DWIDTH 12 0
BBX 5 23 3 -5
BITMAP
0000
0000
0000
0000
0000
0000
0000
0000
0000
3000
7800
7800
3000
0000
3000
7800
7800
3800
3000
6000
C000
0000
0000
ENDCHAR
STARTCHAR LessThanSign
ENCODING 60
SWIDTH 666 0
DWIDTH 12 0
BBX 10 23 1 -5
BITMAP
0000
0000
0000
0000
0000
0000
00C0
03c0
0f00
3c00
f000
f000
3c00
0f00
03c0
00C0
0000
0000
0000
0000
0000
0000
0000
ENDCHAR
STARTCHAR EqualsSign
ENCODING 61
SWIDTH 666 0
DWIDTH 12 0
BBX 10 23 1 -5
BITMAP
0000
0000
0000
0000
0000
0000
0000
0000
FFC0
FFC0
0000
0000
FFC0
FFC0
0000
0000
0000
0000
0000
0000
0000
0000
0000
ENDCHAR
STARTCHAR GreatrThanSign
ENCODING 62
SWIDTH 666 0
DWIDTH 12 0
BBX 10 23 1 -5
BITMAP
0000
0000
0000
0000
0000
0000
c000
f000
3c00
0f00
03C0
03C0
0f00
3c00
f000
c000
0000
0000
0000
0000
0000
0000
0000
ENDCHAR
STARTCHAR QuestionMark
ENCODING 63
SWIDTH 666 0
DWIDTH 12 0
BBX 9 23 2 -5
BITMAP
0000
0000
0000
3e00
7700
e380
e380
6380
0700
0e00
1c00
1800
1800
0000
0000
1800
3c00
3c00
1800
0000
0000
0000
0000
ENDCHAR
STARTCHAR CommerclAtSign
ENCODING 64
SWIDTH 666 0
DWIDTH 12 0
BBX 11 23 1 -5
BITMAP
0000
0000
0000
1F00
71c0
60C0
e0e0
C060
Cd60
db60
db60
db60
db60
db60
Cdc0
e000
6000
70c0
1f80
0000
0000
0000
0000
ENDCHAR
STARTCHAR A
ENCODING 65
SWIDTH 666 0
DWIDTH 12 0
BBX 12 23 0 -5
BITMAP
0000
0000
0000
0000
0600
0600
0f00
0f00
0f00
1b80
1380
1380
31c0
3fc0
21c0
60e0
60e0
f1f0
0000
0000
0000
0000
0000
ENDCHAR
STARTCHAR B
ENCODING 66
SWIDTH 666 0
DWIDTH 12 0
BBX 11 23 1 -5
BITMAP
0000
0000
0000
0000
ff00
7380
71c0
71c0
71c0
7380
7f80
71c0
70e0
70e0
70e0
70e0
71c0
ff80
0000
0000
0000
0000
0000
ENDCHAR
STARTCHAR C
ENCODING 67
SWIDTH 666 0
DWIDTH 12 0
BBX 10 23 1 -5
BITMAP
0000
0000
0000
0000
1fc0
39C0
70C0
7040
e000
e000
e000
e000
e000
e000
7000
7040
3dc0
0F00
0000
0000
0000
0000
0000
ENDCHAR
STARTCHAR D
ENCODING 68
SWIDTH 666 0
DWIDTH 12 0
BBX 11 23 1 -5
BITMAP
0000
0000
0000
0000
FE00
7380
71C0
71C0
70e0
70e0
70e0
70e0
70e0
70e0
70C0
71C0
7380
FE00
0000
0000
0000
0000
0000
ENDCHAR
STARTCHAR E
ENCODING 69
SWIDTH 666 0
DWIDTH 12 0
BBX 11 23 1 -5
BITMAP
0000
0000
0000
0000
ffe0
7060
7020
7020
7100
7100
7f00
7100
7100
7000
7020
7020
7060
ffe0
0000
0000
0000
0000
0000
ENDCHAR
STARTCHAR F
ENCODING 70
SWIDTH 666 0
DWIDTH 12 0
BBX 11 23 1 -5
BITMAP
0000
0000
0000
0000
ffe0
7060
7020
7020
7100
7100
7f00
7100
7100
7000
7000
7000
7000
fc00
0000
0000
0000
0000
0000
ENDCHAR
STARTCHAR G
ENCODING 71
SWIDTH 666 0
DWIDTH 12 0
BBX 11 23 1 -5
BITMAP
0000
0000
0000
0000
1Fc0
39C0
70C0
7040
e000
e000
e000
e3E0
e1C0
e1C0
71C0
71C0
3bC0
0F00
0000
0000
0000
0000
0000
ENDCHAR
STARTCHAR H
ENCODING 72
SWIDTH 666 0
DWIDTH 12 0
BBX 11 23 1 -5
BITMAP
0000
0000
0000
0000
FbE0
71C0
71C0
71C0
71C0
71C0
7FC0
71C0
71C0
71C0
71C0
71C0
71C0
FbE0
0000
0000
0000
0000
0000
ENDCHAR
STARTCHAR I
ENCODING 73
SWIDTH 666 0
DWIDTH 12 0
BBX 9 23 2 -5
BITMAP
0000
0000
0000
0000
fF80
1c00
1c00
1c00
1c00
1c00
1c00
1c00
1c00
1c00
1c00
1c00
1c00
ff80
0000
0000
0000
0000
0000
ENDCHAR
STARTCHAR J
ENCODING 74
SWIDTH 666 0
DWIDTH 12 0
BBX 10 23 1 -5
BITMAP
0000
0000
0000
0000
3fc0
0700
0700
0700
0700
0700
0700
0700
0700
0700
c700
c700
6e00
3c00
0000
0000
0000
0000
0000
ENDCHAR
STARTCHAR K
ENCODING 75
SWIDTH 666 0
DWIDTH 12 0
BBX 12 23 0 -5
BITMAP
0000
0000
0000
0000
F8E0
70C0
7180
7300
7600
7c00
7c00
7c00
7e00
7700
7380
71c0
70e0
F8f0
0000
0000
0000
0000
0000
ENDCHAR
STARTCHAR L
ENCODING 76
SWIDTH 666 0
DWIDTH 12 0
BBX 10 23 1 -5
BITMAP
0000
0000
0000
0000
F800
7000
7000
7000
7000
7000
7000
7000
7000
7000
7040
7040
70C0
FFC0
0000
0000
0000
0000
0000
ENDCHAR
STARTCHAR M
ENCODING 77
SWIDTH 666 0
DWIDTH 12 0
BBX 11 23 1 -5
BITMAP
0000
0000
0000
0000
e0e0
60c0
71c0
71c0
7bc0
7bc0
7ec0
6ec0
6cc0
64c0
60c0
60c0
60c0
f1e0
0000
0000
0000
0000
0000
ENDCHAR
STARTCHAR N
ENCODING 78
SWIDTH 666 0
DWIDTH 12 0
BBX 11 23 1 -5
BITMAP
0000
0000
0000
0000
f1e0
70c0
78c0
78c0
7cc0
7cc0
6ec0
6ec0
67c0
67c0
63c0
63c0
61c0
f1c0
0000
0000
0000
0000
0000
ENDCHAR
STARTCHAR O
ENCODING 79
SWIDTH 666 0
DWIDTH 12 0
BBX 11 23 1 -5
BITMAP
0000
0000
0000
0000
0e00
3f80
71c0
71c0
e0e0
e0e0
e0e0
e0e0
e0e0
e0e0
71c0
71c0
3f80
0e00
0000
0000
0000
0000
0000
ENDCHAR
STARTCHAR P
ENCODING 80
SWIDTH 666 0
DWIDTH 12 0
BBX 11 23 1 -5
BITMAP
0000
0000
0000
0000
ff80
71c0
70e0
70e0
70e0
70e0
71c0
7f80
7000
7000
7000
7000
7000
fc00
0000
0000
0000
0000
0000
ENDCHAR
STARTCHAR Q
ENCODING 81
SWIDTH 666 0
DWIDTH 12 0
BBX 11 23 1 -5
BITMAP
0000
0000
0000
0000
0e00
3f80
71C0
71C0
e0e0
e0e0
e0e0
e0e0
e0e0
e0e0
75C0
77C0
3f80
1F00
0300
0180
00c0
0000
0000
ENDCHAR
STARTCHAR R
ENCODING 82
SWIDTH 666 0
DWIDTH 12 0
BBX 12 23 0 -5
BITMAP
0000
0000
0000
0000
FF80
71c0
70e0
70e0
70e0
71c0
7f80
7700
7380
7380
71c0
71c0
70e0
F8f0
0000
0000
0000
0000
0000
ENDCHAR
STARTCHAR S
ENCODING 83
SWIDTH 666 0
DWIDTH 12 0
BBX 10 23 1 -5
BITMAP
0000
0000
0000
0000
3f80
7380
e180
e080
e000
7800
3e00
0f00
0380
01c0
81c0
c1c0
e380
ff00
0000
0000
0000
0000
0000
ENDCHAR
STARTCHAR T
ENCODING 84
SWIDTH 666 0
DWIDTH 12 0
BBX 11 23 1 -5
BITMAP
0000
0000
0000
0000
FFe0
Ce60
8e20
8e20
0e00
0e00
0e00
0e00
0e00
0e00
0e00
0e00
0e00
3F80
0000
0000
0000
0000
0000
ENDCHAR
STARTCHAR U
ENCODING 85
SWIDTH 666 0
DWIDTH 12 0
BBX 11 23 1 -5
BITMAP
0000
0000
0000
0000
F9E0
70c0
70c0
70c0
70c0
70c0
70c0
70c0
70c0
70c0
70c0
70c0
3980
1F00
0000
0000
0000
0000
0000
ENDCHAR
STARTCHAR V
ENCODING 86
SWIDTH 666 0
DWIDTH 12 0
BBX 12 23 0 -5
BITMAP
0000
0000
0000
0000
F8f0
7060
7040
38c0
38c0
3880
1d80
1d80
1d00
0f00
0f00
0600
0600
0600
0000
0000
0000
0000
0000
ENDCHAR
STARTCHAR W
ENCODING 87
SWIDTH 666 0
DWIDTH 12 0
BBX 12 23 0 -5
BITMAP
0000
0000
0000
0000
f070
6020
6620
6660
3660
3640
3740
3b40
3bc0
1bc0
1980
1980
1980
1980
0000
0000
0000
0000
0000
ENDCHAR
STARTCHAR X
ENCODING 88
SWIDTH 666 0
DWIDTH 12 0
BBX 11 23 1 -5
BITMAP
0000
0000
0000
0000
F9E0
70C0
3180
3980
1B00
1f00
0E00
0E00
1f00
1B00
3380
3180
61C0
F3E0
0000
0000
0000
0000
0000
ENDCHAR
STARTCHAR Y
ENCODING 89
SWIDTH 666 0
DWIDTH 12 0
BBX 11 23 1 -5
BITMAP
0000
0000
0000
0000
f9e0
70c0
70c0
3980
3980
1f00
1f00
0e00
0e00
0e00
0e00
0e00
0e00
3f80
0000
0000
0000
0000
0000
ENDCHAR
STARTCHAR Z
ENCODING 90
SWIDTH 666 0
DWIDTH 12 0
BBX 10 23 1 -5
BITMAP
0000
0000
0000
0000
FFC0
C0C0
80c0
81c0
0380
0700
0e00
1c00
3800
7000
e040
c040
C0C0
FFC0
0000
0000
0000
0000
0000
ENDCHAR
STARTCHAR OpenBracket
ENCODING 91
SWIDTH 666 0
DWIDTH 12 0
BBX 6 23 4 -5
BITMAP
0000
0000
Fc00
e000
e000
e000
e000
e000
e000
e000
e000
e000
e000
e000
e000
e000
e000
e000
e000
Fc00
0000
0000
0000
ENDCHAR
STARTCHAR BackSlash
ENCODING 92
SWIDTH 666 0
DWIDTH 12 0
BBX 10 23 1 -5
BITMAP
0000
0000
C000
C000
e000
6000
7000
3000
3800
1800
1C00
0C00
0e00
0600
0700
0300
0380
0180
01C0
00C0
0000
0000
0000
ENDCHAR
STARTCHAR CloseBracket
ENCODING 93
SWIDTH 666 0
DWIDTH 12 0
BBX 6 23 3 -5
BITMAP
0000
0000
Fc00
1c00
1c00
1c00
1c00
1c00
1c00
1c00
1c00
1c00
1c00
1c00
1c00
1c00
1c00
1c00
1c00
Fc00
0000
0000
0000
ENDCHAR
STARTCHAR Circumflex
ENCODING 94
SWIDTH 666 0
DWIDTH 12 0
BBX 8 23 2 -5
BITMAP
0000
0000
0000
0000
1800
3C00
7e00
c300
0000
0000
0000
0000
0000
0000
0000
0000
0000
0000
0000
0000
0000
0000
0000
ENDCHAR
STARTCHAR Underscore
ENCODING 95
SWIDTH 666 0
DWIDTH 12 0
BBX 12 23 0 -5
BITMAP
0000
0000
0000
0000
0000
0000
0000
0000
0000
0000
0000
0000
0000
0000
0000
0000
0000
0000
FFF0
fff0
0000
0000
0000
ENDCHAR
STARTCHAR SingleOpenQuot
ENCODING 96
SWIDTH 666 0
DWIDTH 12 0
BBX 5 23 4 -5
BITMAP
0000
0000
1800
3000
6000
f000
f000
F000
6000
0000
0000
0000
0000
0000
0000
0000
0000
0000
0000
0000
0000
0000
0000
ENDCHAR
STARTCHAR a
ENCODING 97
SWIDTH 666 0
DWIDTH 12 0
BBX 10 23 1 -5
BITMAP
0000
0000
0000
0000
0000
0000
0000
0000
0000
3f00
6380
6380
0380
3f80
6380
e380
e780
79c0
0000
0000
0000
0000
0000
ENDCHAR
STARTCHAR b
ENCODING 98
SWIDTH 666 0
DWIDTH 12 0
BBX 11 23 1 -5
BITMAP
0000
0000
0000
0000
3000
f000
7000
7000
7000
7700
79C0
70C0
70e0
70e0
70e0
70C0
79C0
6700
0000
0000
0000
0000
0000
ENDCHAR
STARTCHAR c
ENCODING 99
SWIDTH 666 0
DWIDTH 12 0
BBX 9 23 2 -5
BITMAP
0000
0000
0000
0000
0000
0000
0000
0000
0000
1F80
7180
6180
e000
e000
e000
6180
7380
1E00
0000
0000
0000
0000
0000
ENDCHAR
STARTCHAR d
ENCODING 100
SWIDTH 666 0
DWIDTH 12 0
BBX 11 23 1 -5
BITMAP
0000
0000
0000
0000
00C0
03C0
01C0
01C0
01C0
1dC0
73C0
61C0
e1C0
e1C0
e1C0
61C0
73c0
1ce0
0000
0000
0000
0000
0000
ENDCHAR
STARTCHAR e
ENCODING 101
SWIDTH 666 0
DWIDTH 12 0
BBX 10 23 1 -5
BITMAP
0000
0000
0000
0000
0000
0000
0000
0000
0000
1e00
7380
6380
e1c0
ffc0
e000
60c0
71c0
1f00
0000
0000
0000
0000
0000
ENDCHAR
STARTCHAR f
ENCODING 102
SWIDTH 666 0
DWIDTH 12 0
BBX 10 23 1 -5
BITMAP
0000
0000
0000
0000
0f80
1cc0
1cc0
1c00
1c00
FF80
1c00
1c00
1c00
1c00
1c00
1c00
1c00
FFc0
0000
0000
0000
0000
0000
ENDCHAR
STARTCHAR g
ENCODING 103
SWIDTH 666 0
DWIDTH 12 0
BBX 11 23 1 -5
BITMAP
0000
0000
0000
0000
0000
0000
0000
0000
0000
3ee0
67e0
e380
e380
7300
3E00
7000
3F80
7fC0
e1C0
e0C0
7180
3F00
0000
ENDCHAR
STARTCHAR h
ENCODING 104
SWIDTH 666 0
DWIDTH 12 0
BBX 11 23 1 -5
BITMAP
0000
0000
0000
0000
3000
f000
7000
7000
7000
7780
7bc0
71c0
71c0
71c0
71c0
71c0
71c0
Fbe0
0000
0000
0000
0000
0000
ENDCHAR
STARTCHAR i
ENCODING 105
SWIDTH 666 0
DWIDTH 12 0
BBX 9 23 2 -5
BITMAP
0000
0000
0000
0000
1800
3c00
1800
0000
0000
1c00
fc00
1c00
1c00
1c00
1c00
1c00
1c00
ff80
0000
0000
0000
0000
0000
ENDCHAR
STARTCHAR j
ENCODING 106
SWIDTH 666 0
DWIDTH 12 0
BBX 8 23 0 -5
BITMAP
0000
0000
0000
0000
0600
0f00
0600
0000
0000
0300
3f00
0700
0700
0700
0700
0700
0700
0700
0700
c700
ee00
3c00
0000
ENDCHAR
STARTCHAR k
ENCODING 107
SWIDTH 666 0
DWIDTH 12 0
BBX 11 23 1 -5
BITMAP
0000
0000
0000
0000
3000
f000
7000
7000
7000
77C0
7300
7600
7C00
7e00
7700
7380
71c0
F9e0
0000
0000
0000
0000
0000
ENDCHAR
STARTCHAR l
ENCODING 108
SWIDTH 666 0
DWIDTH 12 0
BBX 9 23 2 -5
BITMAP
0000
0000
0000
0000
7c00
1c00
1c00
1c00
1c00
1c00
1c00
1c00
1c00
1c00
1c00
1c00
1c00
ff80
0000
0000
0000
0000
0000
ENDCHAR
STARTCHAR m
ENCODING 109
SWIDTH 666 0
DWIDTH 12 0
BBX 12 23 0 -5
BITMAP
0000
0000
0000
0000
0000
0000
0000
0000
0000
5dc0
ffe0
6660
6660
6660
6660
6660
6660
eef0
0000
0000
0000
0000
0000
ENDCHAR
STARTCHAR n
ENCODING 110
SWIDTH 666 0
DWIDTH 12 0
BBX 11 23 1 -5
BITMAP
0000
0000
0000
0000
0000
0000
0000
0000
0000
3780
fbc0
71c0
71c0
71c0
71c0
71c0
71c0
fbe0
0000
0000
0000
0000
0000
ENDCHAR
STARTCHAR o
ENCODING 111
SWIDTH 666 0
DWIDTH 12 0
BBX 10 23 1 -5
BITMAP
0000
0000
0000
0000
0000
0000
0000
0000
0000
1E00
7380
6180
e1C0
e1C0
e1C0
6180
7380
1E00
0000
0000
0000
0000
0000
ENDCHAR
STARTCHAR p
ENCODING 112
SWIDTH 666 0
DWIDTH 12 0
BBX 11 23 1 -5
BITMAP
0000
0000
0000
0000
0000
0000
0000
0000
0000
3700
f9C0
70C0
70e0
70e0
70e0
70C0
79C0
7700
7000
7000
7000
Fc00
0000
ENDCHAR
STARTCHAR q
ENCODING 113
SWIDTH 666 0
DWIDTH 12 0
BBX 11 23 1 -5
BITMAP
0000
0000
0000
0000
0000
0000
0000
0000
0000
1cc0
73C0
61C0
e1C0
e1C0
e1C0
61C0
73C0
1dC0
01C0
01C0
01C0
07E0
0000
ENDCHAR
STARTCHAR r
ENCODING 114
SWIDTH 666 0
DWIDTH 12 0
BBX 11 23 1 -5
BITMAP
0000
0000
0000
0000
0000
0000
0000
0000
0000
39c0
fbe0
3cc0
3800
3800
3800
3800
3800
ff00
0000
0000
0000
0000
0000
ENDCHAR
STARTCHAR s
ENCODING 115
SWIDTH 666 0
DWIDTH 12 0
BBX 8 23 2 -5
BITMAP
0000
0000
0000
0000
0000
0000
0000
0000
0000
7f00
e300
e100
f800
7e00
1f00
8700
c700
fe00
0000
0000
0000
0000
0000
ENDCHAR
STARTCHAR t
ENCODING 116
SWIDTH 666 0
DWIDTH 12 0
BBX 10 23 1 -5
BITMAP
0000
0000
0000
0000
0000
0000
0c00
1c00
1c00
fF80
1c00
1c00
1c00
1c00
1c00
1c00
1cc0
0F80
0000
0000
0000
0000
0000
ENDCHAR
STARTCHAR u
ENCODING 117
SWIDTH 666 0
DWIDTH 12 0
BBX 11 23 1 -5
BITMAP
0000
0000
0000
0000
0000
0000
0000
0000
0000
30c0
f3c0
71c0
71c0
71c0
71c0
71c0
73c0
3ce0
0000
0000
0000
0000
0000
ENDCHAR
STARTCHAR v
ENCODING 118
SWIDTH 666 0
DWIDTH 12 0
BBX 11 23 1 -5
BITMAP
0000
0000
0000
0000
0000
0000
0000
0000
0000
F9E0
70C0
3180
3980
1b00
1f00
0E00
0E00
0400
0000
0000
0000
0000
0000
ENDCHAR
STARTCHAR w
ENCODING 119
SWIDTH 666 0
DWIDTH 12 0
BBX 12 23 0 -5
BITMAP
0000
0000
0000
0000
0000
0000
0000
0000
0000
F070
6620
7660
3660
3b40
3bc0
1bc0
1d80
1d80
0000
0000
0000
0000
0000
ENDCHAR
STARTCHAR x
ENCODING 120
SWIDTH 666 0
DWIDTH 12 0
BBX 11 23 1 -5
BITMAP
0000
0000
0000
0000
0000
0000
0000
0000
0000
FbC0
7180
3b00
1E00
0e00
1f00
3380
61c0
F3e0
0000
0000
0000
0000
0000
ENDCHAR
STARTCHAR y
ENCODING 121
SWIDTH 666 0
DWIDTH 12 0
BBX 11 23 1 -5
BITMAP
0000
0000
0000
0000
0000
0000
0000
0000
0000
f9e0
70c0
3880
3980
1d00
1f00
0e00
0e00
0400
0c00
6800
f800
7000
0000
ENDCHAR
STARTCHAR z
ENCODING 122
SWIDTH 666 0
DWIDTH 12 0
BBX 10 23 1 -5
BITMAP
0000
0000
0000
0000
0000
0000
0000
0000
0000
7fc0
61c0
4380
0700
0e00
1c00
3840
70c0
ffc0
0000
0000
0000
0000
0000
ENDCHAR
STARTCHAR OpenBrace
ENCODING 123
SWIDTH 666 0
DWIDTH 12 0
BBX 8 23 3 -5
BITMAP
0000
0000
0f00
1c00
1c00
1c00
1c00
1c00
1c00
3800
f000
3800
1c00
1c00
1c00
1c00
1c00
1c00
1c00
0f00
0000
0000
0000
ENDCHAR
STARTCHAR LongVertMark
ENCODING 124
SWIDTH 666 0
DWIDTH 12 0
BBX 2 23 5 -5
BITMAP
0000
0000
0000
C000
C000
C000
C000
C000
C000
C000
C000
C000
C000
C000
C000
C000
C000
C000
C000
0000
0000
0000
0000
ENDCHAR
STARTCHAR CloseBrace
ENCODING 125
SWIDTH 666 0
DWIDTH 12 0
BBX 8 23 3 -5
BITMAP
0000
0000
f000
3800
3800
3800
3800
3800
3800
1c00
0f00
1c00
3800
3800
3800
3800
3800
3800
3800
f000
0000
0000
0000
ENDCHAR
STARTCHAR OneWavyLine
ENCODING 126
SWIDTH 666 0
DWIDTH 12 0
BBX 10 23 1 -5
BITMAP
0000
0000
0000
0000
0000
0000
0000
0000
0000
7040
fc40
8fc0
8380
0000
0000
0000
0000
0000
0000
0000
0000
0000
0000
ENDCHAR
STARTCHAR MediumShading
ENCODING 127
SWIDTH 666 0
DWIDTH 12 0
BBX 12 23 0 -5
BITMAP
ccc0
ccc0
3330
3330
ccc0
ccc0
3330
3330
ccc0
ccc0
3330
3330
ccc0
ccc0
3330
3330
ccc0
ccc0
3330
3330
ccc0
ccc0
ccc0
ENDCHAR
STARTCHAR InvExclamation
ENCODING 161
SWIDTH 666 0
DWIDTH 12 0
BBX 4 23 4 -5
BITMAP
0000
0000
0000
6000
F000
F000
6000
0000
0000
6000
6000
6000
f000
F000
F000
F000
F000
F000
6000
0000
0000
0000
0000
ENDCHAR
STARTCHAR CentSign
ENCODING 162
SWIDTH 666 0
DWIDTH 12 0
BBX 9 23 1 -5
BITMAP
0000
0000
0000
0000
0C00
0C00
0C00
1F80
7180
6180
e000
e000
e000
6180
7380
1E00
0C00
0C00
0C00
0000
0000
0000
0000
ENDCHAR
STARTCHAR SterlingSign
ENCODING 163
SWIDTH 666 0
DWIDTH 12 0
BBX 10 23 1 -5
BITMAP
0000
0000
0000
0000
1F00
3980
7180
7000
7000
FC00
7000
7000
FC00
7000
7000
7840
Ffc0
CF80
0000
0000
0000
0000
0000
ENDCHAR
STARTCHAR CurrencySymbol
ENCODING 164
SWIDTH 666 0
DWIDTH 12 0
BBX 9 23 2 -5
BITMAP
0000
0000
0000
0000
0000
c180
ff80
f700
6300
4100
6300
7700
ff80
c180
0000
0000
0000
0000
0000
0000
0000
0000
0000
ENDCHAR
STARTCHAR Yensign
ENCODING 165
SWIDTH 666 0
DWIDTH 12 0
BBX 12 23 0 -5
BITMAP
0000
0000
0000
0000
F8F0
7060
38C0
38C0
1d80
1d80
0F00
7ff0
0700
0700
7ff0
0700
0700
1Fc0
0000
0000
0000
0000
0000
ENDCHAR
STARTCHAR BrokenVertMark
ENCODING 166
SWIDTH 666 0
DWIDTH 12 0
BBX 2 23 5 -5
BITMAP
0000
0000
0000
C000
C000
C000
C000
C000
C000
C000
0000
0000
C000
C000
C000
C000
C000
C000
C000
0000
0000
0000
0000
ENDCHAR
STARTCHAR SectionMark
ENCODING 167
SWIDTH 666 0
DWIDTH 12 0
BBX 8 23 2 -5
BITMAP
0000
0000
0000
7e00
e700
e700
f200
7800
3c00
5e00
cf00
e700
f300
7a00
3c00
1e00
4f00
e700
e700
7e00
0000
0000
0000
ENDCHAR
STARTCHAR diaeresisAccnt
ENCODING 168
SWIDTH 666 0
DWIDTH 12 0
BBX 7 23 2 -5
BITMAP
0000
0000
0000
0000
4400
ee00
4400
0000
0000
0000
0000
0000
0000
0000
0000
0000
0000
0000
0000
0000
0000
0000
0000
ENDCHAR
STARTCHAR CopyrightSign
ENCODING 169
SWIDTH 666 0
DWIDTH 12 0
BBX 10 23 1 -5
BITMAP
0000
0000
0000
0000
0000
1e00
7380
4080
dec0
b240
b040
b040
b240
dcc0
4080
7380
1e00
0000
0000
0000
0000
0000
0000
ENDCHAR
STARTCHAR FemaleOrdinal
ENCODING 170
SWIDTH 666 0
DWIDTH 12 0
BBX 9 23 2 -5
BITMAP
0000
0000
0000
3e00
6700
0700
1f00
7700
e700
e700
7980
0000
ff80
0000
0000
0000
0000
0000
0000
0000
0000
0000
0000
ENDCHAR
STARTCHAR DblOpenAnglQut
ENCODING 171
SWIDTH 666 0
DWIDTH 12 0
BBX 10 23 2 -5
BITMAP
0000
0000
0000
0000
0000
0000
0840
18c0
39c0
7380
e700
e700
7380
39c0
18c0
0840
0000
0000
0000
0000
0000
0000
0000
ENDCHAR
STARTCHAR NotSign
ENCODING 172
SWIDTH 666 0
DWIDTH 12 0
BBX 10 23 1 -5
BITMAP
0000
0000
0000
0000
0000
0000
0000
0000
0000
0000
FFC0
FFC0
00c0
00c0
00c0
00c0
0000
0000
0000
0000
0000
0000
0000
ENDCHAR
STARTCHAR SoftHyphen
ENCODING 173
SWIDTH 666 0
DWIDTH 12 0
BBX 10 23 1 -5
BITMAP
0000
0000
0000
0000
0000
0000
0000
0000
0000
0000
FFC0
FFC0
0000
0000
0000
0000
0000
0000
0000
0000
0000
0000
0000
ENDCHAR
STARTCHAR RegisTradeMark
ENCODING 174
SWIDTH 666 0
DWIDTH 12 0
BBX 11 23 1 -5
BITMAP
0000
0000
0000
0000
0000
1f00
71c0
4040
de60
9b20
9b20
9e20
9b20
db60
4040
71c0
1f00
0000
0000
0000
0000
0000
0000
ENDCHAR
STARTCHAR macronAccent
ENCODING 175
SWIDTH 666 0
DWIDTH 12 0
BBX 9 23 1 -5
BITMAP
0000
0000
0000
0000
FF80
FF80
0000
0000
0000
0000
0000
0000
0000
0000
0000
0000
0000
0000
0000
0000
0000
0000
0000
ENDCHAR
STARTCHAR DegreeSign
ENCODING 176
SWIDTH 666 0
DWIDTH 12 0
BBX 7 23 3 -5
BITMAP
0000
0000
0000
0000
3800
7C00
C600
C600
C600
7C00
3800
0000
0000
0000
0000
0000
0000
0000
0000
0000
0000
0000
0000
ENDCHAR
STARTCHAR PlusOverMinus
ENCODING 177
SWIDTH 666 0
DWIDTH 12 0
BBX 10 23 1 -5
BITMAP
0000
0000
0000
0000
0c00
0c00
0c00
ffc0
ffc0
0c00
0c00
0c00
0000
ffc0
ffc0
0000
0000
0000
0000
0000
0000
0000
0000
ENDCHAR
STARTCHAR SupNumberTwo
ENCODING 178
SWIDTH 666 0
DWIDTH 12 0
BBX 6 23 3 -5
BITMAP
0000
0000
0000
7800
dc00
9c00
1c00
3800
6000
c400
fc00
fc00
0000
0000
0000
0000
0000
0000
0000
0000
0000
0000
0000
ENDCHAR
STARTCHAR SupNumberThree
ENCODING 179
SWIDTH 666 0
DWIDTH 12 0
BBX 6 23 3 -5
BITMAP
0000
0000
0000
7800
dc00
9c00
1c00
3800
1c00
9c00
dc00
7800
0000
0000
0000
0000
0000
0000
0000
0000
0000
0000
0000
ENDCHAR
STARTCHAR acuteAccent
ENCODING 180
SWIDTH 666 0
DWIDTH 12 0
BBX 5 23 4 -5
BITMAP
0000
0000
0000
0000
3800
7000
e000
0000
0000
0000
0000
0000
0000
0000
0000
0000
0000
0000
0000
0000
0000
0000
0000
ENDCHAR
STARTCHAR muGreek
ENCODING 181
SWIDTH 666 0
DWIDTH 12 0
BBX 11 23 1 -5
BITMAP
0000
0000
0000
0000
0000
0000
0000
0000
0000
1860
1860
1860
30C0
30c0
30c0
7180
7Fe0
6ee0
6000
C000
C000
C000
0000
ENDCHAR
STARTCHAR ParagraphSign
ENCODING 182
SWIDTH 666 0
DWIDTH 12 0
BBX 11 23 1 -5
BITMAP
0000
0000
0000
0000
3fe0
7CC0
FCC0
FCC0
FCC0
fCC0
7CC0
3CC0
0CC0
0CC0
0CC0
0CC0
0CC0
0CC0
0CC0
0000
0000
0000
0000
ENDCHAR
STARTCHAR middleDot
ENCODING 183
SWIDTH 666 0
DWIDTH 12 0
BBX 4 23 4 -5
BITMAP
0000
0000
0000
0000
0000
0000
0000
0000
0000
0000
6000
f000
f000
6000
0000
0000
0000
0000
0000
0000
0000
0000
0000
ENDCHAR
STARTCHAR cedilla
ENCODING 184
SWIDTH 666 0
DWIDTH 12 0
BBX 6 23 3 -5
BITMAP
0000
0000
0000
0000
0000
0000
0000
0000
0000
0000
0000
0000
0000
0000
0000
0000
0000
0000
1000
3800
0c00
cc00
7800
ENDCHAR
STARTCHAR SupNumberOne
ENCODING 185
SWIDTH 666 0
DWIDTH 12 0
BBX 5 23 3 -5
BITMAP
0000
0000
0000
1800
3800
7800
d800
1800
1800
1800
1800
1800
0000
0000
0000
0000
0000
0000
0000
0000
0000
0000
0000
ENDCHAR
STARTCHAR MaleOrdinal
ENCODING 186
SWIDTH 666 0
DWIDTH 12 0
BBX 8 23 2 -5
BITMAP
0000
0000
0000
3c00
6600
e700
e700
e700
e700
6600
3c00
0000
ff00
0000
0000
0000
0000
0000
0000
0000
0000
0000
0000
ENDCHAR
STARTCHAR DblClosAnglQut
ENCODING 187
SWIDTH 666 0
DWIDTH 12 0
BBX 10 23 2 -5
BITMAP
0000
0000
0000
0000
0000
0000
8400
c600
e700
7380
39c0
39c0
7380
e700
c600
8400
0000
0000
0000
0000
0000
0000
0000
ENDCHAR
STARTCHAR FracOneFourth
ENCODING 188
SWIDTH 666 0
DWIDTH 12 0
BBX 11 23 1 -5
BITMAP
0000
0000
1800
3800
7800
d800
1820
1860
18c0
1980
0300
0600
0d00
1b00
3300
6680
c6c0
8cC0
0fe0
1Fe0
00C0
00C0
0000
ENDCHAR
STARTCHAR FracOneHalf
ENCODING 189
SWIDTH 666 0
DWIDTH 12 0
BBX 11 23 1 -5
BITMAP
0000
0000
1800
3800
7800
d800
1820
1860
18c0
1980
0300
0600
0c00
1bc0
36e0
64e0
c0e0
81c0
0300
0620
07e0
07e0
0000
ENDCHAR
STARTCHAR FracThreeFour
ENCODING 190
SWIDTH 666 0
DWIDTH 12 0
BBX 11 23 1 -5
BITMAP
0000
7800
dc00
9C00
1C00
3800
1c20
9c60
dcc0
7980
0300
0600
0d00
1b00
3300
6680
c6c0
8cC0
0fe0
1Fe0
00C0
00C0
0000
ENDCHAR
STARTCHAR InvertQuestion
ENCODING 191
SWIDTH 666 0
DWIDTH 12 0
BBX 9 23 2 -5
BITMAP
0000
0000
0000
0000
0c00
1e00
1e00
0c00
0000
0000
0c00
0c00
1c00
3800
7000
e300
e380
e380
7700
3e00
0000
0000
0000
ENDCHAR
STARTCHAR Agrave
ENCODING 192
SWIDTH 666 0
DWIDTH 12 0
BBX 12 23 0 -5
BITMAP
3800
1c00
0e00
0000
0600
0600
0f00
0f00
0f00
1b80
1380
1380
31c0
3fc0
21c0
60e0
60e0
f1f0
0000
0000
0000
0000
0000
ENDCHAR
STARTCHAR Aacute
ENCODING 193
SWIDTH 666 0
DWIDTH 12 0
BBX 12 23 0 -5
BITMAP
01c0
0380
0700
0000
0600
0600
0f00
0f00
0f00
1b80
1380
1380
31c0
3fc0
21c0
60e0
60e0
f1f0
0000
0000
0000
0000
0000
ENDCHAR
STARTCHAR Acircumflex
ENCODING 194
SWIDTH 666 0
DWIDTH 12 0
BBX 12 23 0 -5
BITMAP
0600
0f00
1f80
30c0
0600
0600
0f00
0f00
0f00
1b80
1380
1380
31c0
3fc0
21c0
60e0
60e0
f1f0
0000
0000
0000
0000
0000
ENDCHAR
STARTCHAR Atilde
ENCODING 195
SWIDTH 666 0
DWIDTH 12 0
BBX 12 23 0 -5
BITMAP
1c40
2f40
2380
0000
0600
0600
0f00
0f00
0f00
1b80
1380
1380
31c0
3fc0
21c0
60e0
60e0
f1f0
0000
0000
0000
0000
0000
ENDCHAR
STARTCHAR Adiaeresis
ENCODING 196
SWIDTH 666 0
DWIDTH 12 0
BBX 12 23 0 -5
BITMAP
1100
3b80
1100
0000
0600
0600
0f00
0f00
0f00
1b80
1380
1380
31c0
3fc0
21c0
60e0
60e0
f1f0
0000
0000
0000
0000
0000
ENDCHAR
STARTCHAR Abolle
ENCODING 197
SWIDTH 666 0
DWIDTH 12 0
BBX 12 23 0 -5
BITMAP
0e00
1b00
1100
1b00
0e00
0600
0f00
0f00
0f00
1b80
1380
1380
31c0
3fc0
21c0
60e0
60e0
f1f0
0000
0000
0000
0000
0000
ENDCHAR
STARTCHAR AEdiphthong
ENCODING 198
SWIDTH 666 0
DWIDTH 12 0
BBX 12 23 0 -5
BITMAP
0000
0000
0000
0000
1FF0
0F30
0f10
1B00
1B20
1b20
13E0
3320
3F20
3300
2310
6310
6330
F7F0
0000
0000
0000
0000
0000
ENDCHAR
STARTCHAR Ccedilla
ENCODING 199
SWIDTH 666 0
DWIDTH 12 0
BBX 10 23 1 -5
BITMAP
0000
0000
0000
0000
1Fc0
39C0
70C0
7040
e000
e000
e000
e000
e000
e000
7000
7040
3dc0
0f00
0400
0e00
0300
3300
1e00
ENDCHAR
STARTCHAR Egrave
ENCODING 200
SWIDTH 666 0
DWIDTH 12 0
BBX 11 23 1 -5
BITMAP
3800
1c00
0e00
0000
ffe0
7060
7020
7020
7100
7100
7f00
7100
7100
7000
7020
7020
7060
ffe0
0000
0000
0000
0000
0000
ENDCHAR
STARTCHAR Eacute
ENCODING 201
SWIDTH 666 0
DWIDTH 12 0
BBX 11 23 1 -5
BITMAP
01c0
0380
0700
0000
ffe0
7060
7020
7020
7100
7100
7f00
7100
7100
7000
7020
7020
7060
ffe0
0000
0000
0000
0000
0000
ENDCHAR
STARTCHAR Ecircumflex
ENCODING 202
SWIDTH 666 0
DWIDTH 12 0
BBX 11 23 1 -5
BITMAP
0600
0f00
1980
0000
ffe0
7060
7020
7020
7100
7100
7f00
7100
7100
7000
7020
7020
7060
ffe0
0000
0000
0000
0000
0000
ENDCHAR
STARTCHAR Ediaeresis
ENCODING 203
SWIDTH 666 0
DWIDTH 12 0
BBX 11 23 1 -5
BITMAP
1100
3b80
1100
0000
ffe0
7060
7020
7020
7100
7100
7f00
7100
7100
7000
7020
7020
7060
ffe0
0000
0000
0000
0000
0000
ENDCHAR
STARTCHAR Igrave
ENCODING 204
SWIDTH 666 0
DWIDTH 12 0
BBX 9 23 2 -5
BITMAP
7000
3800
1c00
0000
FF80
1c00
1c00
1c00
1c00
1c00
1c00
1c00
1c00
1c00
1c00
1c00
1c00
FF80
0000
0000
0000
0000
0000
ENDCHAR
STARTCHAR Iacute
ENCODING 205
SWIDTH 666 0
DWIDTH 12 0
BBX 9 23 2 -5
BITMAP
0700
0E00
1c00
0000
FF80
1c00
1c00
1c00
1c00
1c00
1c00
1c00
1c00
1c00
1c00
1c00
1c00
FF80
0000
0000
0000
0000
0000
ENDCHAR
STARTCHAR Icircumflex
ENCODING 206
SWIDTH 666 0
DWIDTH 12 0
BBX 9 23 2 -5
BITMAP
1800
3c00
6600
0000
ff80
1c00
1c00
1c00
1c00
1c00
1c00
1c00
1c00
1c00
1c00
1c00
1c00
ff80
0000
0000
0000
0000
0000
ENDCHAR
STARTCHAR Idiaeresis
ENCODING 207
SWIDTH 666 0
DWIDTH 12 0
BBX 9 23 2 -5
BITMAP
2200
7700
2200
0000
ff80
1c00
1c00
1c00
1c00
1c00
1c00
1c00
1c00
1c00
1c00
1c00
1c00
ff80
0000
0000
0000
0000
0000
ENDCHAR
STARTCHAR Eth
ENCODING 208
SWIDTH 666 0
DWIDTH 12 0
BBX 11 23 1 -5
BITMAP
0000
0000
0000
0000
FE00
7380
71C0
71C0
70e0
70e0
Fce0
70e0
70e0
70e0
71C0
71C0
7380
FE00
0000
0000
0000
0000
0000
ENDCHAR
STARTCHAR Ntilde
ENCODING 209
SWIDTH 666 0
DWIDTH 12 0
BBX 11 23 1 -5
BITMAP
3c80
5e80
4f00
0000
e1e0
70c0
70c0
78c0
78c0
7cc0
7cc0
6ec0
6ec0
67c0
67c0
63c0
63c0
f1c0
0000
0000
0000
0000
0000
ENDCHAR
STARTCHAR Ograve
ENCODING 210
SWIDTH 666 0
DWIDTH 12 0
BBX 11 23 1 -5
BITMAP
3800
1c00
0e00
0000
0e00
3f80
71c0
71c0
e0e0
e0e0
e0e0
e0e0
e0e0
e0e0
71c0
71c0
3f80
0e00
0000
0000
0000
0000
0000
ENDCHAR
STARTCHAR Oacute
ENCODING 211
SWIDTH 666 0
DWIDTH 12 0
BBX 11 23 1 -5
BITMAP
01c0
0380
0700
0000
0e00
3f80
71c0
71c0
e0e0
e0e0
e0e0
e0e0
e0e0
e0e0
71c0
71c0
3f80
0e00
0000
0000
0000
0000
0000
ENDCHAR
STARTCHAR Ocircumflex
ENCODING 212
SWIDTH 666 0
DWIDTH 12 0
BBX 11 23 1 -5
BITMAP
0c00
1e00
3f00
6180
0e00
3f80
71C0
71C0
e0e0
e0e0
e0e0
e0e0
e0e0
e0e0
71C0
71C0
3f80
0e00
0000
0000
0000
0000
0000
ENDCHAR
STARTCHAR Otilde
ENCODING 213
SWIDTH 666 0
DWIDTH 12 0
BBX 11 23 1 -5
BITMAP
7840
9e40
8780
0000
0e00
3f80
71c0
71c0
e0e0
e0e0
e0e0
e0e0
e0e0
e0e0
71c0
71c0
3f80
0e00
0000
0000
0000
0000
0000
ENDCHAR
STARTCHAR Odiaeresis
ENCODING 214
SWIDTH 666 0
DWIDTH 12 0
BBX 11 23 1 -5
BITMAP
1100
3b80
1100
0000
0e00
3f80
71C0
71C0
e0e0
e0e0
e0e0
e0e0
e0e0
e0e0
71C0
71C0
3f80
0e00
0000
0000
0000
0000
0000
ENDCHAR
STARTCHAR MultiplySign
ENCODING 215
SWIDTH 666 0
DWIDTH 12 0
BBX 10 23 1 -5
BITMAP
0000
0000
0000
0000
0000
0000
c0c0
e1c0
7380
3f00
1e00
1e00
3f00
7380
e1c0
c0c0
0000
0000
0000
0000
0000
0000
0000
ENDCHAR
STARTCHAR Ooblique
ENCODING 216
SWIDTH 666 0
DWIDTH 12 0
BBX 11 23 1 -5
BITMAP
0000
0000
0000
0040
0ec0
3f80
71C0
71c0
e3e0
e2e0
e6e0
e4e0
eCe0
e8e0
79C0
71C0
3f80
6e00
4000
0000
0000
0000
0000
ENDCHAR
STARTCHAR Ugrave
ENCODING 217
SWIDTH 666 0
DWIDTH 12 0
BBX 11 23 1 -5
BITMAP
3800
1c00
0e00
0000
f9e0
70c0
70c0
70c0
70c0
70c0
70c0
70c0
70c0
70c0
70c0
70c0
3980
1f00
0000
0000
0000
0000
0000
ENDCHAR
STARTCHAR Uacute
ENCODING 218
SWIDTH 666 0
DWIDTH 12 0
BBX 11 23 1 -5
BITMAP
01c0
0380
0700
0000
f9E0
70c0
70c0
70c0
70c0
70c0
70c0
70c0
70c0
70c0
70c0
70c0
3980
1F00
0000
0000
0000
0000
0000
ENDCHAR
STARTCHAR Ucircumflex
ENCODING 219
SWIDTH 666 0
DWIDTH 12 0
BBX 11 23 1 -5
BITMAP
0600
0F00
1980
0000
F9E0
70c0
70c0
70c0
70c0
70c0
70c0
70c0
70c0
70c0
70c0
70c0
3980
1F00
0000
0000
0000
0000
0000
ENDCHAR
STARTCHAR Udiaeresis
ENCODING 220
SWIDTH 666 0
DWIDTH 12 0
BBX 11 23 1 -5
BITMAP
1100
3b80
1100
0000
f9e0
70c0
70c0
70c0
70c0
70c0
70c0
70c0
70c0
70c0
70c0
70c0
3980
1f00
0000
0000
0000
0000
0000
ENDCHAR
STARTCHAR Yacute
ENCODING 221
SWIDTH 666 0
DWIDTH 12 0
BBX 11 23 1 -5
BITMAP
01c0
0380
0700
0000
f9e0
70c0
70c0
3980
3980
1f00
1f00
0e00
0e00
0e00
0e00
0e00
0e00
3f80
0000
0000
0000
0000
0000
ENDCHAR
STARTCHAR Thorn
ENCODING 222
SWIDTH 666 0
DWIDTH 12 0
BBX 11 23 1 -5
BITMAP
0000
0000
0000
0000
Fc00
7000
7000
7F80
71c0
70e0
70e0
70e0
71c0
7F80
7000
7000
7000
Fc00
0000
0000
0000
0000
0000
ENDCHAR
STARTCHAR EsZetLigature
ENCODING 223
SWIDTH 666 0
DWIDTH 12 0
BBX 11 23 1 -5
BITMAP
0000
0000
0000
0000
1f00
3b80
71c0
71c0
71c0
7380
7780
71c0
70e0
70e0
70e0
74e0
77c0
7380
7000
f000
0000
0000
0000
ENDCHAR
STARTCHAR agrave
ENCODING 224
SWIDTH 666 0
DWIDTH 12 0
BBX 10 23 1 -5
BITMAP
0000
0000
0000
0000
3800
1c00
0e00
0000
0000
3F00
6380
6380
0380
3F80
6380
e380
E780
79c0
0000
0000
0000
0000
0000
ENDCHAR
STARTCHAR aacute
ENCODING 225
SWIDTH 666 0
DWIDTH 12 0
BBX 10 23 1 -5
BITMAP
0000
0000
0000
0000
0380
0700
0e00
0000
0000
3F00
6380
6380
0380
3F80
6380
e380
E780
79c0
0000
0000
0000
0000
0000
ENDCHAR
STARTCHAR acircumflex
ENCODING 226
SWIDTH 666 0
DWIDTH 12 0
BBX 10 23 1 -5
BITMAP
0000
0000
0000
0000
0c00
1e00
3f00
6180
0000
3f00
6380
6380
0380
3f80
6380
e380
e780
79c0
0000
0000
0000
0000
0000
ENDCHAR
STARTCHAR atilde
ENCODING 227
SWIDTH 666 0
DWIDTH 12 0
BBX 10 23 1 -5
BITMAP
0000
0000
0000
0000
3880
5e80
4700
0000
0000
3F00
6380
6380
0380
3F80
6380
e380
E780
79c0
0000
0000
0000
0000
0000
ENDCHAR
STARTCHAR adiaeresis
ENCODING 228
SWIDTH 666 0
DWIDTH 12 0
BBX 10 23 1 -5
BITMAP
0000
0000
0000
0000
2200
7700
2200
0000
0000
3f00
6380
6380
0380
3f80
6380
e380
e780
79c0
0000
0000
0000
0000
0000
ENDCHAR
STARTCHAR abolle
ENCODING 229
SWIDTH 666 0
DWIDTH 12 0
BBX 10 23 1 -5
BITMAP
0000
0000
0e00
1b00
1100
1b00
0e00
0000
0000
3F00
6380
6380
0380
3F80
6380
e380
E780
79c0
0000
0000
0000
0000
0000
ENDCHAR
STARTCHAR aedihthong
ENCODING 230
SWIDTH 666 0
DWIDTH 12 0
BBX 12 23 0 -5
BITMAP
0000
0000
0000
0000
0000
0000
0000
0000
0000
7dc0
cf60
ce70
0e70
7FF0
ce00
Ce10
cF30
73E0
0000
0000
0000
0000
0000
ENDCHAR
STARTCHAR ccedilla
ENCODING 231
SWIDTH 666 0
DWIDTH 12 0
BBX 9 23 1 -5
BITMAP
0000
0000
0000
0000
0000
0000
0000
0000
0000
1F80
7180
6180
e000
e000
e000
6180
7380
1E00
0400
0e00
0300
3300
1e00
ENDCHAR
STARTCHAR egrave
ENCODING 232
SWIDTH 666 0
DWIDTH 12 0
BBX 10 23 1 -5
BITMAP
0000
0000
0000
0000
3800
1c00
0e00
0000
0000
1E00
7380
6380
e1C0
fFC0
e000
60c0
71C0
1F00
0000
0000
0000
0000
0000
ENDCHAR
STARTCHAR eacute
ENCODING 233
SWIDTH 666 0
DWIDTH 12 0
BBX 10 23 1 -5
BITMAP
0000
0000
0000
0000
0380
0700
0e00
0000
0000
1E00
7380
6380
e1C0
FFC0
e000
60c0
71C0
1F00
0000
0000
0000
0000
0000
ENDCHAR
STARTCHAR ecircumflex
ENCODING 234
SWIDTH 666 0
DWIDTH 12 0
BBX 10 23 1 -5
BITMAP
0000
0000
0000
0000
0800
1c00
3e00
6300
0000
1E00
7380
6380
e1C0
FFC0
e000
60c0
71C0
1F00
0000
0000
0000
0000
0000
ENDCHAR
STARTCHAR ediaeresis
ENCODING 235
SWIDTH 666 0
DWIDTH 12 0
BBX 10 23 1 -5
BITMAP
0000
0000
0000
0000
1100
3b80
1100
0000
0000
1E00
7380
6380
e1C0
fFC0
e000
60c0
71C0
1F00
0000
0000
0000
0000
0000
ENDCHAR
STARTCHAR igrave
ENCODING 236
SWIDTH 666 0
DWIDTH 12 0
BBX 9 23 2 -5
BITMAP
0000
0000
0000
0000
e000
7000
1800
0000
0000
0c00
Fc00
1c00
1c00
1c00
1c00
1c00
1c00
FF80
0000
0000
0000
0000
0000
ENDCHAR
STARTCHAR iacute
ENCODING 237
SWIDTH 666 0
DWIDTH 12 0
BBX 9 23 2 -5
BITMAP
0000
0000
0000
0000
0700
0E00
1c00
0000
0000
0c00
Fc00
1c00
1c00
1c00
1c00
1c00
1c00
FF80
0000
0000
0000
0000
0000
ENDCHAR
STARTCHAR icircumflex
ENCODING 238
SWIDTH 666 0
DWIDTH 12 0
BBX 9 23 2 -5
BITMAP
0000
0000
0000
0000
0800
1c00
3e00
6300
0000
1c00
Fc00
1c00
1c00
1c00
1c00
1c00
1c00
FF80
0000
0000
0000
0000
0000
ENDCHAR
STARTCHAR idiaeresis
ENCODING 239
SWIDTH 666 0
DWIDTH 12 0
BBX 9 23 2 -5
BITMAP
0000
0000
0000
0000
2200
7700
2200
0000
0000
1c00
fc00
1c00
1c00
1c00
1c00
1c00
1c00
ff80
0000
0000
0000
0000
0000
ENDCHAR
STARTCHAR ethIcelandic
ENCODING 240
SWIDTH 666 0
DWIDTH 12 0
BBX 10 23 1 -5
BITMAP
0000
0000
0000
6000
7600
3c00
3c00
6e00
0700
1f80
7380
73c0
e1c0
e1c0
e1c0
7380
7380
1e00
0000
0000
0000
0000
0000
ENDCHAR
STARTCHAR ntilde
ENCODING 241
SWIDTH 666 0
DWIDTH 12 0
BBX 11 23 1 -5
BITMAP
0000
0000
0000
0000
3880
5e80
4700
0000
0000
3780
Fbc0
71c0
71c0
71c0
71c0
71c0
71c0
Fbe0
0000
0000
0000
0000
0000
ENDCHAR
STARTCHAR ograve
ENCODING 242
SWIDTH 666 0
DWIDTH 12 0
BBX 10 23 1 -5
BITMAP
0000
0000
0000
0000
3800
1c00
0e00
0000
0000
1e00
7380
6180
e1c0
e1c0
e1c0
6180
7380
1e00
0000
0000
0000
0000
0000
ENDCHAR
STARTCHAR oacute
ENCODING 243
SWIDTH 666 0
DWIDTH 12 0
BBX 10 23 1 -5
BITMAP
0000
0000
0000
0000
0380
0700
0e00
0000
0000
1E00
7380
6180
e1C0
e1C0
e1C0
6180
7380
1E00
0000
0000
0000
0000
0000
ENDCHAR
STARTCHAR ocircumflex
ENCODING 244
SWIDTH 666 0
DWIDTH 12 0
BBX 10 23 1 -5
BITMAP
0000
0000
0000
0000
0800
1c00
3e00
6300
0000
1E00
7380
6180
e1C0
e1C0
e1C0
6180
7380
1E00
0000
0000
0000
0000
0000
ENDCHAR
STARTCHAR otilde
ENCODING 245
SWIDTH 666 0
DWIDTH 12 0
BBX 10 23 1 -5
BITMAP
0000
0000
0000
0000
7880
be80
8f00
0000
0000
1E00
7380
6180
e1C0
e1C0
e1C0
6180
7380
1E00
0000
0000
0000
0000
0000
ENDCHAR
STARTCHAR odiaeresis
ENCODING 246
SWIDTH 666 0
DWIDTH 12 0
BBX 10 23 1 -5
BITMAP
0000
0000
0000
0000
2200
7700
2200
0000
0000
1e00
7380
6180
e1c0
e1c0
e1c0
6180
7380
1e00
0000
0000
0000
0000
0000
ENDCHAR
STARTCHAR DivideSign
ENCODING 247
SWIDTH 666 0
DWIDTH 12 0
BBX 10 23 1 -5
BITMAP
0000
0000
0000
0000
0000
0000
0c00
0c00
0000
0000
FFC0
FFC0
0000
0000
0c00
0c00
0000
0000
0000
0000
0000
0000
0000
ENDCHAR
STARTCHAR ooblique
ENCODING 248
SWIDTH 666 0
DWIDTH 12 0
BBX 10 23 1 -5
BITMAP
0000
0000
0000
0000
0000
0000
0000
0080
0180
1f00
7380
6780
e5c0
edc0
e9c0
7980
7380
3e00
6000
4000
0000
0000
0000
ENDCHAR
STARTCHAR ugrave
ENCODING 249
SWIDTH 666 0
DWIDTH 12 0
BBX 11 23 1 -5
BITMAP
0000
0000
0000
0000
3800
1c00
0e00
0000
0000
30c0
f3c0
71c0
71c0
71c0
71c0
71c0
73c0
3ce0
0000
0000
0000
0000
0000
ENDCHAR
STARTCHAR uacute
ENCODING 250
SWIDTH 666 0
DWIDTH 12 0
BBX 11 23 1 -5
BITMAP
0000
0000
0000
0000
0380
0700
0e00
0000
0000
30c0
f3c0
71c0
71c0
71c0
71c0
71c0
73c0
3ce0
0000
0000
0000
0000
0000
ENDCHAR
STARTCHAR ucircumflex
ENCODING 251
SWIDTH 666 0
DWIDTH 12 0
BBX 11 23 1 -5
BITMAP
0000
0000
0000
0000
0400
0e00
1f00
3180
0000
30c0
f3c0
71c0
71c0
71c0
71c0
71c0
73c0
3ce0
0000
0000
0000
0000
0000
ENDCHAR
STARTCHAR udiaeresis
ENCODING 252
SWIDTH 666 0
DWIDTH 12 0
BBX 11 23 1 -5
BITMAP
0000
0000
0000
0000
1100
3b80
1100
0000
0000
30c0
f3c0
71c0
71c0
71c0
71c0
71c0
73c0
3ce0
0000
0000
0000
0000
0000
ENDCHAR
STARTCHAR yacute
ENCODING 253
SWIDTH 666 0
DWIDTH 12 0
BBX 11 23 1 -5
BITMAP
0000
0000
0000
0000
01c0
0380
0700
0000
0000
f9e0
70c0
3880
3980
1d00
1f00
0e00
0e00
0400
0c00
6800
f800
7000
0000
ENDCHAR
STARTCHAR thorn
ENCODING 254
SWIDTH 666 0
DWIDTH 12 0
BBX 11 23 1 -5
BITMAP
0000
0000
0000
0000
3000
f000
7000
7000
7000
7700
79C0
70C0
70e0
70e0
70e0
70C0
79C0
7700
7000
7000
7000
Fc00
0000
ENDCHAR
STARTCHAR ydiaeresis
ENCODING 255
SWIDTH 666 0
DWIDTH 12 0
BBX 11 23 1 -5
BITMAP
0000
0000
0000
0000
1100
3b80
1100
0000
0000
f9e0
70c0
3880
3980
1d00
1f00
0e00
0e00
0400
0c00
6800
f800
7000
0000
ENDCHAR
ENDFONT
